<svg id="Layer_1" data-name="Layer 1" xmlns="http://www.w3.org/2000/svg" viewBox="0 0 512 512"><defs><style>.cls-1{fill:#fff;}.cls-2{fill:#79d3d3;}.cls-3{fill:#d9e4e8;}.cls-4{fill:#141f38;}</style></defs><title>timer-filled</title><path class="cls-1" d="M256.41,256l-.27.2.07.14-.2-.07-.2.07.07-.14-.27-.2H256V64C150.13,64,64,150.13,64,256s86.13,192,192,192,192-86.13,192-192Z"/><path class="cls-2" d="M256,64V256H448C448,150.13,361.87,64,256,64Z"/><polygon class="cls-3" points="256.4 256 256.13 256.2 256.2 256.34 256 256.27 255.8 256.34 255.87 256.2 255.59 256 256.4 256"/><line class="cls-3" x1="256" y1="256" x2="255.86" y2="256.2"/><line class="cls-3" x1="256.13" y1="256.2" x2="256" y2="256.27"/><line class="cls-3" x1="256.13" y1="256.2" x2="256" y2="256"/><line class="cls-3" x1="256" y1="256.27" x2="255.86" y2="256.2"/><path class="cls-3" d="M256,384A128,128,0,1,1,384,256,128.15,128.15,0,0,1,256,384Z"/><path class="cls-3" d="M256,499.2A243.2,243.2,0,0,1,84,84,243.2,243.2,0,1,1,428,428,241.61,241.61,0,0,1,256,499.2ZM256,64C150.13,64,64,150.13,64,256s86.13,192,192,192,192-86.13,192-192S361.87,64,256,64Z"/><path class="cls-4" d="M237.42,217.71h-6.34a12.55,12.55,0,0,0-6.35,1.79L204.1,231.35c-3,1.8-3.49,3.07-2.11,6.14l5,9c1.59,2.85,3.81,3.49,6.88,1.8l7.09-4v44.11c0,3.28,1.16,4.44,4.55,4.44h12c3.38,0,4.44-1.16,4.44-4.44V222.15C241.86,218.87,240.81,217.71,237.42,217.71Z"/><path class="cls-4" d="M282.89,243.52H275.8l.74-7.4h26.23c3.39,0,4.55-1.06,4.55-4.45v-9.52c0-3.38-1.17-4.55-4.55-4.55H264.06c-5,0-6.56,1.59-7.09,6.35l-3.28,31.42c-.32,3.7.85,5.18,4.65,5.18h22c5.61,0,8.46,2.43,8.46,7.19,0,5.19-2.64,7.83-7.82,7.83s-8.68-2-10.26-5.92c-1.27-3.28-2.65-3.81-5.5-2.64l-11.32,4.23c-3.07,1.17-3.91,2.43-2.75,5.71,4.55,12,13.86,17.46,30.78,17.46,8.88,0,15.87-2.43,21-7.3s7.62-10.89,7.62-18.41C310.6,253.78,301.4,243.52,282.89,243.52Z"/><path class="cls-4" d="M256,51.2C143.07,51.2,51.2,143.07,51.2,256S143.07,460.8,256,460.8,460.8,368.93,460.8,256,368.93,51.2,256,51.2ZM405.81,157.65,372.2,176.48A141.58,141.58,0,0,0,337,140.85l19.22-33.4A180.17,180.17,0,0,1,405.81,157.65ZM243.2,396.21v38.53a178.12,178.12,0,0,1-65.28-17.4l19.22-33.4A139.91,139.91,0,0,0,243.2,396.21Zm25.6,0a139.91,139.91,0,0,0,46.06-12.28l19.22,33.4a178.12,178.12,0,0,1-65.28,17.4Zm-12.8-25a115.2,115.2,0,1,1,81.46-33.74A114.45,114.45,0,0,1,256,371.2Zm-140.21-128H77.26A178.12,178.12,0,0,1,93.69,180l33.62,18.83A139.92,139.92,0,0,0,115.79,243.2Zm0,25.6a139.92,139.92,0,0,0,11.68,44.75L93.85,332.37A178.12,178.12,0,0,1,77.26,268.8Zm153-153V77.26a178.12,178.12,0,0,1,65.28,17.4l-19.22,33.4A139.91,139.91,0,0,0,268.8,115.79Zm-25.6,0a139.91,139.91,0,0,0-46.06,12.28l-19.22-33.4a178.12,178.12,0,0,1,65.28-17.4Zm153,153h38.53a178.12,178.12,0,0,1-16.59,63.57l-33.61-18.82A139.92,139.92,0,0,0,396.21,268.8Zm0-25.6a139.92,139.92,0,0,0-11.52-44.38L418.31,180a178.12,178.12,0,0,1,16.43,63.21ZM155.75,107.45,175,140.85a141.58,141.58,0,0,0-35.16,35.63l-33.61-18.82A180.17,180.17,0,0,1,155.75,107.45ZM106.41,354.68,140,335.85A141.58,141.58,0,0,0,175,371.15l-19.22,33.4A180.17,180.17,0,0,1,106.41,354.68Zm249.85,49.87L337,371.15A141.58,141.58,0,0,0,372,335.85l33.62,18.83A180.17,180.17,0,0,1,356.26,404.55Z"/><path class="cls-4" d="M256,0C114.61,0,0,114.61,0,256S114.61,512,256,512,512,397.38,512,256,397.38,0,256,0ZM418.92,418.92a229.6,229.6,0,1,1,49.39-73.24A229.66,229.66,0,0,1,418.92,418.92Z"/></svg>